<svg width="105" height="58" viewBox="0 0 105 58" fill="none" xmlns="http://www.w3.org/2000/svg">
<g style="mix-blend-mode:screen">
<path d="M27 4.984V26.872C27 32.392 26.088 33.064 18.648 33.064C14.04 33.064 12.216 32.584 11.4 31.144C10.968 30.424 10.776 29.224 10.776 27.016V4.984H5.88V27.016C5.88 32.728 6.984 34.936 10.536 36.376C12.264 37.048 14.232 37.288 18.744 37.288C25.896 37.288 28.344 36.616 30.264 34.168C31.464 32.584 31.896 30.712 31.896 26.824V4.984H27ZM65.1161 4.984H59.3561L53.4041 14.44C53.0201 15.064 52.7321 15.544 51.7721 17.224L51.2441 18.136H51.1481L50.6201 17.224C49.6121 15.448 49.3241 14.968 48.9881 14.392L42.9881 4.984H37.1321L47.2601 20.44L36.3161 37H42.2201L48.6041 27.064C49.0361 26.392 49.3721 25.864 50.5721 23.848L51.1961 22.744H51.2921L51.8681 23.8C53.0201 25.816 53.3081 26.296 53.7881 27.016L60.0761 37H65.7881L55.1801 20.44L65.1161 4.984ZM70.2255 37H86.0655C87.2655 37 88.8975 36.808 90.2415 36.52C92.9775 35.896 94.7535 34.552 95.9535 32.152C97.1535 29.896 97.4415 27.256 97.4415 18.904C97.4415 12.904 96.7215 10.12 94.5135 7.768C92.6895 5.8 90.0015 4.984 85.4895 4.984H70.2255V37ZM75.1215 32.776V9.256H85.1535C88.3215 9.256 90.0015 9.832 91.0095 11.224C92.2095 12.856 92.4975 14.68 92.4975 21.256C92.4975 27.112 92.1615 29.176 90.9135 30.808C89.9055 32.152 87.8415 32.776 84.6255 32.776H75.1215Z" fill="#33FFFF"/>
</g>
<g style="mix-blend-mode:screen">
<path d="M28 4.984V26.872C28 32.392 27.088 33.064 19.648 33.064C15.04 33.064 13.216 32.584 12.4 31.144C11.968 30.424 11.776 29.224 11.776 27.016V4.984H6.88V27.016C6.88 32.728 7.984 34.936 11.536 36.376C13.264 37.048 15.232 37.288 19.744 37.288C26.896 37.288 29.344 36.616 31.264 34.168C32.464 32.584 32.896 30.712 32.896 26.824V4.984H28ZM66.1161 4.984H60.3561L54.4041 14.44C54.0201 15.064 53.7321 15.544 52.7721 17.224L52.2441 18.136H52.1481L51.6201 17.224C50.6121 15.448 50.3241 14.968 49.9881 14.392L43.9881 4.984H38.1321L48.2601 20.44L37.3161 37H43.2201L49.6041 27.064C50.0361 26.392 50.3721 25.864 51.5721 23.848L52.1961 22.744H52.2921L52.8681 23.8C54.0201 25.816 54.3081 26.296 54.7881 27.016L61.0761 37H66.7881L56.1801 20.44L66.1161 4.984ZM71.2255 37H87.0655C88.2655 37 89.8975 36.808 91.2415 36.52C93.9775 35.896 95.7535 34.552 96.9535 32.152C98.1535 29.896 98.4415 27.256 98.4415 18.904C98.4415 12.904 97.7215 10.12 95.5135 7.768C93.6895 5.8 91.0015 4.984 86.4895 4.984H71.2255V37ZM76.1215 32.776V9.256H86.1535C89.3215 9.256 91.0015 9.832 92.0095 11.224C93.2095 12.856 93.4975 14.68 93.4975 21.256C93.4975 27.112 93.1615 29.176 91.9135 30.808C90.9055 32.152 88.8415 32.776 85.6255 32.776H76.1215Z" fill="#F72E93"/>
</g>
<g style="mix-blend-mode:difference">
<line y1="15.5" x2="53" y2="15.5" stroke="white" stroke-dasharray="5 5"/>
</g>
<g style="mix-blend-mode:difference">
<line x1="52" y1="24.5" x2="105" y2="24.5" stroke="white" stroke-dasharray="5 5"/>
</g>
</svg>
